HIERARCHY
ROOT pelvis
{
  OFFSET 0 100 0
  CHANNELS 6 Xposition Yposition Zposition Zrotation Xrotation Yrotation
  JOINT pelvis_right_femur
  {
    OFFSET -10.78128 -3.44521 -0.5502486
    CHANNELS 3 Zrotation Xrotation Yrotation
    JOINT right_femur_tibia
    {
      OFFSET -0.8047443 -44.0398 -0.1307829
      CHANNELS 3 Zrotation Xrotation Yrotation
      JOINT right_tibia_foot
      {
        OFFSET 3.006224 -47.83518 -5
        CHANNELS 3 Zrotation Xrotation Yrotation
        End Site
        {
          OFFSET 0 -5 15
        }
      }
    }
  }
  JOINT pelvis_left_femur
  {
    OFFSET 10.78128 -3.44521 -0.5502486
    CHANNELS 3 Zrotation Xrotation Yrotation
    JOINT left_femur_tibia
    {
      OFFSET 0.8047443 -44.0398 -0.1307829
      CHANNELS 3 Zrotation Xrotation Yrotation
      JOINT left_tibia_foot
      {
        OFFSET -4.370144 -48.10324 -4.275266
        CHANNELS 3 Zrotation Xrotation Yrotation
        End Site
        {
          OFFSET 0 -5 15
        }
      }
    }
  }
  JOINT pelvis_spine1
  {
    OFFSET 0 6.468898 -3.129235
    CHANNELS 3 Zrotation Xrotation Yrotation
    JOINT spine1
    {
      OFFSET 0 23.15396 4.99043
      CHANNELS 3 Zrotation Xrotation Yrotation
      JOINT spine2
      {
        OFFSET 0 20.79997 -5.064912
        CHANNELS 3 Zrotation Xrotation Yrotation
        JOINT neck
        {
          OFFSET 0 14.38658 9.616178
          CHANNELS 3 Zrotation Xrotation Yrotation
          End Site
          {
            OFFSET 0 20 0
          }
        }
      }
      JOINT right_manubrium
      {
        OFFSET -5.722621 16.35077 3.967754
        CHANNELS 3 Zrotation Xrotation Yrotation
        JOINT right_clavicle
        {
          OFFSET -13.16364 1.694482 -4.693211
          CHANNELS 3 Zrotation Xrotation Yrotation
          JOINT right_humerus
          {
            OFFSET -28.5034 -0.3100689 -2.792744
            CHANNELS 3 Zrotation Xrotation Yrotation
            JOINT right_radius
            {
              OFFSET -25.15693 0.02248979 -1.271978
              CHANNELS 3 Zrotation Xrotation Yrotation
              End Site
              {
                OFFSET -15 0 0
              }
            }
          }
        }
      }
      JOINT left_manubrium
      {
        OFFSET 5.722621 16.35077 3.967754
        CHANNELS 3 Zrotation Xrotation Yrotation
        JOINT left_clavicle
        {
          OFFSET 13.16364 1.694482 -4.693211
          CHANNELS 3 Zrotation Xrotation Yrotation
          JOINT left_humerus
          {
            OFFSET 29.39168 -1.063119 -2.237045
            CHANNELS 3 Zrotation Xrotation Yrotation
            JOINT left_radius
            {
              OFFSET 24.59957 -0.9528479 0.9047498
              CHANNELS 3 Zrotation Xrotation Yrotation
              End Site
              {
                OFFSET 15 -0 -0
              }
            }
          }
        }
      }
    }
  }
}
MOTION
Frames: 13
Frame Time: 0.0416666666667
577.2409 79.02795 3084.71 0.2594489 -8.656923 -4.202895 2.736618 18.74393 6.19069 -0 21.26877 -0 4.193548 -14.57388 -3.166049 2.74008 -24.2527 -2.452175 -0 16.84327 -0 -7.956022 -8.045665 17.03093 -0.2165879 -0.3864037 9.00823 -1.495008 11.22283 -3.090596 2.571004 20.01382 2.874543 0.878707 -15.58783 5.378587 -0.3459363 -25.47767 11.28647 82.31307 16.47637 -5.789834 -0 0 31.66707 -26.19207 13.24293 15.88574 3.203008 -14.95578 -4.418705 -95.59828 22.89347 31.15293 0 0 -9.904128 -7.905103 4.976057 22.21822
577.9873 77.99983 3091.937 0.6182522 -9.0297 -4.520696 1.951102 18.50865 6.985735 -0 26.12487 -0 5.807122 -13.90163 -3.796011 1.550216 -22.81332 -3.384676 -0 18.61827 -0 -9.188312 -8.835471 17.19192 -0.6119374 -0.225739 8.994058 -1.728763 10.58105 -2.815028 2.800799 20.27072 3.022197 1.04028 -14.85732 5.575847 0.07443511 -24.24972 10.9813 82.01146 16.47059 -5.992856 -0 0 31.22513 -25.9467 12.69195 15.28778 3.219752 -14.05752 -4.145079 -95.52068 24.44558 30.05698 0 0 -9.709797 -9.232343 3.725574 23.97689
578.6661 77.38116 3099.24 1.021158 -9.483557 -4.686317 1.134564 17.72306 7.758989 -0 31.84787 -0 7.189241 -12.96905 -4.607354 0.1318471 -20.67186 -4.505958 -0 21.11145 -0 -10.13345 -9.567084 17.41342 -1.069151 -0.1051573 8.873365 -1.932517 10.01425 -2.644053 3.016005 20.63569 3.201825 1.19913 -14.13274 5.818211 0.5694849 -22.8194 10.67693 81.91782 16.75202 -6.510136 -0 0 30.23367 -25.515 12.13099 14.49461 3.231422 -13.32214 -3.892117 -95.1039 25.91747 28.46754 0 0 -9.63655 -10.11172 2.67956 25.2274
579.2586 77.21864 3106.513 1.437413 -10.06434 -4.676919 0.346504 16.30858 8.416953 -0 38.08224 -0 8.198801 -11.86509 -5.622411 -1.380074 -17.74916 -5.717912 -0 23.98208 -0 -10.70501 -10.22982 17.66536 -1.552487 -0.02771691 8.603136 -2.092178 9.576521 -2.614158 3.210015 21.10732 3.372297 1.313895 -13.42204 6.090092 1.059902 -21.2889 10.3767 82.14672 17.21649 -7.367857 -0 0 28.72401 -24.93029 11.62245 13.55428 3.233535 -12.83192 -3.721505 -94.30247 27.21942 26.39359 0 0 -9.705444 -10.5266 1.986454 25.90728
579.7472 77.50018 3113.643 1.829356 -10.7435 -4.486149 -0.338545 14.20671 8.859858 -0 44.11829 -0 8.730595 -10.75317 -6.797893 -2.80677 -14.11405 -6.875681 -0 26.77497 -0 -10.86919 -10.82644 17.88545 -2.020043 0.02265869 8.159173 -2.180307 9.291209 -2.755025 3.367911 21.65707 3.50428 1.35578 -12.75685 6.368132 1.483508 -19.76716 10.09184 82.73067 17.79342 -8.541909 -0 0 26.78144 -24.23137 11.22972 12.54434 3.238097 -12.65558 -3.668599 -93.09959 28.25618 23.87421 0 0 -9.977962 -10.47915 1.728842 25.97914
580.1216 78.14754 3120.537 2.155193 -11.37263 -4.134144 -0.8399704 11.42076 8.989641 -0 48.99723 -0 8.723421 -9.757186 -7.984468 -3.980189 -10.06813 -7.822872 -0 29.00789 -0 -10.6289 -11.36398 17.99361 -2.431698 0.07255091 7.558238 -2.159049 9.150932 -3.075969 3.458571 22.21902 3.608149 1.333159 -12.2308 6.625399 1.820414 -18.36192 9.84994 83.57988 18.50371 -9.934287 -0 0 24.53063 -23.46986 10.99052 11.57842 3.276446 -12.8404 -3.722251 -91.54121 28.89669 21.02559 0 0 -10.54122 -9.937689 1.910832 25.38664
580.3855 79.03596 3127.156 2.368679 -11.71529 -3.667192 -1.086907 8.038089 8.735789 -0 51.86333 -0 8.157034 -8.824774 -8.950664 -4.804801 -6.089499 -8.446769 -0 30.37283 -0 -10.00427 -11.83425 17.91793 -2.753296 0.1418486 6.860343 -1.993267 9.139631 -3.558087 3.438472 22.69919 3.741484 1.300283 -12.00552 6.837845 2.097677 -17.17 9.697368 84.52273 19.45313 -11.40246 -0 0 22.10061 -22.71051 10.90143 10.78631 3.384128 -13.40563 -3.833864 -89.77302 28.98083 18.08829 0 0 -11.45803 -8.823116 2.471766 24.0506
580.5591 80.03182 3133.523 2.426914 -11.56606 -3.138856 -1.047447 4.222103 8.097144 -0 52.37072 -0 7.065135 -7.740847 -9.478309 -5.279085 -2.632398 -8.722878 -0 30.84174 -0 -9.037834 -12.21919 17.62296 -2.961485 0.232871 6.143205 -1.669475 9.248125 -4.157235 3.273938 23.00922 3.976603 1.331019 -12.2439 6.991873 2.364819 -16.26349 9.68218 85.39925 20.7389 -12.81652 -0 0 19.61325 -22.01501 10.92629 10.26877 3.576272 -14.32399 -3.950809 -88.03287 28.40983 15.40571 0 0 -12.70595 -7.085909 3.300544 21.95455
580.6752 81.02121 3139.698 2.309163 -10.87951 -2.583758 -0.7504578 0.1886401 7.159534 -0 50.80569 -0 5.5447 -6.316372 -9.471087 -5.465372 0.08030624 -8.722229 -0 30.58294 -0 -7.827654 -12.52295 17.12433 -3.048545 0.3361736 5.464374 -1.207951 9.461332 -4.81399 2.970314 23.11015 4.345748 1.471285 -13.00338 7.090064 2.649883 -15.67147 9.821906 86.13497 22.32753 -14.09557 -0 0 17.19437 -21.41909 11.01604 10.05397 3.834689 -15.50211 -4.048332 -86.56622 27.26415 13.29404 0 0 -14.15579 -4.828629 4.256691 19.26395
580.7676 81.91826 3145.744 2.028787 -9.80219 -2.011464 -0.2675929 -3.830891 6.065596 -0 47.80344 -0 3.738605 -4.565804 -8.99909 -5.439758 2.11652 -8.570766 -0 29.86678 -0 -6.556556 -12.78259 16.47321 -3.018782 0.4456245 4.841643 -0.6566534 9.736877 -5.46602 2.58143 23.03233 4.811807 1.711675 -14.18282 7.147691 2.931423 -15.36456 10.08521 86.74725 24.01345 -15.21564 -0 0 14.96434 -20.92013 11.12497 10.08443 4.116941 -16.79204 -4.137024 -85.51882 25.82325 11.88897 0 0 -15.62622 -2.352321 5.215461 16.3529
580.8572 82.66523 3151.713 1.628315 -8.578363 -1.426853 0.3318987 -7.638891 4.972398 -0 43.93732 -0 1.821472 -2.7257 -8.254281 -5.262436 3.715576 -8.384707 -0 29.07587 -0 -5.473293 -13.0373 15.72269 -2.881329 0.5657693 4.269474 -0.07121096 10.0043 -6.061025 2.186727 22.85076 5.291355 2.00249 -15.56746 7.180361 3.160066 -15.25384 10.40538 87.28804 25.51851 -16.20288 -0 0 13.00708 -20.47901 11.22124 10.23945 4.379196 -18.03502 -4.239512 -84.89599 24.45213 11.09918 0 0 -16.98577 -0.06403334 6.100271 13.68877
580.9449 83.23608 3157.645 1.167037 -7.410503 -0.852159 1.011425 -11.09928 4.032026 -0 39.52755 -0 0.001947025 -1.143147 -7.45932 -4.979688 5.091396 -8.224113 -0 28.72587 -0 -4.814045 -13.28517 14.91111 -2.651247 0.7045072 3.756004 0.5027356 10.18841 -6.566403 1.854237 22.63659 5.705875 2.291428 -16.92519 7.194631 3.313807 -15.21049 10.71304 87.77454 26.66415 -17.1138 -0 0 11.35315 -20.03277 11.29218 10.37654 4.597101 -19.10651 -4.353896 -84.5989 23.44137 10.68489 0 0 -18.22158 1.693408 6.85936 11.64967
581.0138 83.64361 3163.583 0.7075222 -6.384585 -0.3299909 1.766416 -14.10128 3.377673 -0 34.74002 -0 -1.507766 -0.115575 -6.782758 -4.639057 6.287612 -8.08563 -0 29.40601 -0 -4.701264 -13.45403 14.07819 -2.354709 0.8582101 3.345586 1.033487 10.2448 -6.969172 1.616714 22.42683 6.017509 2.550916 -18.08712 7.189047 3.427579 -15.10729 10.96542 88.17079 27.46788 -18.00407 -0 0 9.985972 -19.52124 11.34011 10.3758 4.770273 -19.94133 -4.438926 -84.49301 22.897 10.39304 0 0 -19.41164 2.783117 7.427831 10.38056
